<svg version="1.1" id="Layer_1" xmlns="http://www.w3.org/2000/svg" xmlns:xlink="http://www.w3.org/1999/xlink" x="0px" y="0px"
	 width="100%" viewBox="0 0 720 720" enable-background="new 0 0 720 720" xml:space="preserve">
<path fill="#000000" opacity="1.000000" stroke="none" 
	d="
M269.992950,379.280579 
	C253.481903,379.418427 255.891220,379.806305 255.542526,365.249878 
	C255.096069,346.610474 255.591644,327.981110 255.570618,309.347504 
	C255.567444,306.535767 255.171158,303.710327 254.780258,300.915924 
	C253.837036,294.173096 250.903961,291.151001 244.765244,290.402191 
	C239.311081,289.736877 233.598053,292.939758 231.448151,298.131989 
	C229.840622,302.014252 229.285522,306.139923 229.288666,310.353790 
	C229.303650,330.518005 229.295502,350.682251 229.264877,370.846436 
	C229.253754,378.175751 228.138687,379.278137 220.902237,379.308167 
	C216.402924,379.326813 211.902893,379.335815 207.404099,379.278076 
	C201.145081,379.197784 199.793137,377.877380 199.784927,371.582947 
	C199.758820,351.585938 199.817871,331.588745 199.781082,311.591766 
	C199.773148,307.277557 199.959015,302.945770 198.662979,298.706146 
	C197.211945,293.959412 194.448639,290.827820 189.300766,290.310699 
	C183.808487,289.759003 179.409714,291.579315 176.774811,296.601776 
	C175.052551,299.884674 174.370117,303.485840 174.278732,307.203644 
	C173.787720,327.178375 173.626831,347.154236 173.975708,367.133209 
	C174.007690,368.964600 173.925888,370.797852 173.904282,372.630310 
	C173.848419,377.371826 171.599411,379.558044 166.722321,379.348267 
	C161.399017,379.119293 156.059280,379.272034 150.726715,379.258545 
	C146.659500,379.248260 144.626511,377.365387 144.632187,373.142517 
	C144.677887,339.146729 144.687698,305.150848 144.635757,271.155090 
	C144.629623,267.139038 146.666122,265.220642 150.340805,265.087891 
	C155.996902,264.883514 161.668457,264.871063 167.326080,265.033875 
	C170.706741,265.131226 172.311737,267.198151 172.360641,270.623138 
	C172.387360,272.493439 171.740829,274.611053 174.265671,276.921997 
	C180.673447,267.198578 189.568924,262.209412 201.187286,262.873932 
	C212.779190,263.536957 220.742950,269.567871 225.756409,280.489471 
	C227.877518,277.723724 229.398163,275.590179 231.071732,273.584229 
	C239.247131,263.785065 253.020981,260.410522 266.139252,264.940155 
	C277.327789,268.803467 284.146729,278.341766 284.251282,291.560242 
	C284.466034,318.715149 284.285889,345.872925 284.357727,373.029297 
	C284.369568,377.515808 282.340393,379.443024 277.982941,379.309967 
	C275.485382,379.233704 272.983887,379.287079 269.992950,379.280579 
z"/>
<path fill="#000000" opacity="1.000000" stroke="none" 
	d="
M63.820961,291.939575 
	C63.062992,293.823792 62.441132,295.369537 61.908417,296.945404 
	C60.982780,299.683563 59.264000,300.947021 56.246990,300.611725 
	C50.788681,300.005188 45.294441,299.714661 39.841335,299.070831 
	C35.004154,298.499725 33.630432,296.317535 34.861946,291.434631 
	C38.408848,277.371246 47.667919,268.833832 61.225475,264.666473 
	C74.159866,260.690704 87.131851,260.699310 99.996468,265.028015 
	C113.699677,269.638824 120.987984,279.264679 121.273415,293.759003 
	C121.548889,307.747986 121.512840,321.748566 121.305786,335.739471 
	C121.188011,343.697052 122.846817,350.967285 127.880928,357.203644 
	C131.015152,361.086395 130.891663,364.128906 126.782341,367.296844 
	C122.837112,370.338287 119.246925,373.846375 115.557037,377.211182 
	C112.024307,380.432648 108.593018,380.839905 105.175484,377.093109 
	C103.381302,375.126038 101.252937,373.365051 99.872116,371.140656 
	C97.150566,366.756470 94.634552,367.211731 91.266815,370.447113 
	C80.673035,380.624542 67.580513,382.339050 54.012768,379.731567 
	C38.136398,376.680450 28.494141,360.950500 31.070766,343.992340 
	C34.084576,324.156891 46.093708,313.045288 68.193848,309.725342 
	C74.604843,308.762268 81.022476,307.801849 87.466469,307.116760 
	C90.903015,306.751373 92.126373,305.126312 91.735672,301.875092 
	C91.616882,300.886627 91.728813,299.871185 91.619858,298.880737 
	C91.021271,293.439301 90.107063,287.934753 84.065109,285.922943 
	C77.735931,283.815521 71.544296,284.426422 66.203827,288.935028 
	C65.334084,289.669281 64.726143,290.713623 63.820961,291.939575 
M88.481415,348.856537 
	C91.733383,342.386627 91.981033,335.461945 91.687317,328.422791 
	C91.566757,325.533447 90.392471,324.183777 87.407402,324.301086 
	C81.868713,324.518738 76.636055,325.671631 71.563423,328.047607 
	C62.050190,332.503387 60.819080,342.447266 63.033527,351.129364 
	C64.326149,356.197388 68.669922,358.881592 73.960953,358.900024 
	C80.778053,358.923798 84.999352,355.056824 88.481415,348.856537 
z"/>
<path fill="#000000" opacity="1.000000" stroke="none" 
	d="
M392.282959,301.023132 
	C392.298248,313.514099 392.444183,325.511139 392.281128,337.503937 
	C392.184662,344.599884 393.934113,350.901459 398.188843,356.653107 
	C402.423920,362.378143 402.122162,363.486298 396.615112,368.161499 
	C392.807037,371.394379 388.960480,374.585144 385.235718,377.911804 
	C382.122589,380.692230 379.259338,380.405487 376.511383,377.525116 
	C374.215576,375.118652 371.762329,372.801483 369.841400,370.114105 
	C367.622345,367.009827 365.871979,366.867249 363.165741,369.581848 
	C352.512939,380.267548 339.134796,382.170349 325.160370,379.837891 
	C308.850677,377.115723 298.728119,360.314484 302.010345,342.875671 
	C305.680267,323.376770 317.114319,313.280579 339.690582,309.690521 
	C346.096954,308.671753 352.521149,307.759094 358.949219,306.886444 
	C360.977356,306.611145 362.591187,306.033478 362.570129,303.656281 
	C362.459045,291.112030 359.779816,283.037231 344.269501,285.302673 
	C338.398956,286.160126 334.811005,289.939728 333.170013,295.516205 
	C331.996918,299.502686 329.772705,301.248993 325.428406,300.537994 
	C320.838409,299.786774 316.154907,299.624023 311.523682,299.102905 
	C305.710846,298.448792 304.443604,296.819550 305.764008,291.264374 
	C308.116791,281.365875 313.625275,273.509399 322.599915,268.766632 
	C338.441101,260.395172 355.038483,259.547333 371.910614,265.466248 
	C385.337402,270.176483 391.392242,280.297913 392.220367,294.031433 
	C392.350555,296.190186 392.267883,298.361755 392.282959,301.023132 
M353.930878,355.551025 
	C362.483521,348.186920 362.746033,338.211945 362.470001,328.117859 
	C362.417145,326.185547 361.371613,324.806610 359.164490,324.361938 
	C347.838165,322.080170 334.748718,330.462036 332.914032,341.652557 
	C332.006042,347.190582 332.678619,352.854828 337.621063,356.499756 
	C342.765228,360.293457 348.211914,359.631927 353.930878,355.551025 
z"/>
<path fill="#000000" opacity="1.000000" stroke="none" 
	d="
M613.603027,283.001465 
	C613.623169,278.502350 613.754517,274.498871 613.622131,270.504181 
	C613.512939,267.209045 614.987488,265.305206 618.168457,265.187408 
	C624.157837,264.965668 630.162231,264.863495 636.151428,265.031311 
	C639.457642,265.123993 641.241821,267.190186 641.204773,270.630157 
	C641.176575,273.245911 641.199158,275.862244 641.199158,278.487854 
	C643.529968,278.587738 643.843384,277.002991 644.541931,276.032379 
	C652.896667,264.424622 664.579163,260.266113 678.217224,264.122528 
	C689.887268,267.422455 697.332031,277.413605 698.335144,291.044098 
	C700.343384,318.333862 698.797241,345.661407 699.245178,372.967377 
	C699.322266,377.662903 697.053162,379.553436 692.450562,379.370331 
	C687.624634,379.178345 682.786194,379.300964 677.953186,379.287354 
	C670.851074,379.267395 669.792175,378.249573 669.786255,371.262054 
	C669.769409,351.429932 669.779602,331.597809 669.761658,311.765686 
	C669.757751,307.441437 669.830139,303.133545 668.473145,298.905426 
	C666.984314,294.266541 664.538452,290.815399 659.348755,290.171997 
	C653.738892,289.476501 649.652344,291.919983 646.794373,296.575806 
	C643.539734,301.877960 642.813965,307.873138 642.741394,313.884369 
	C642.510071,333.043427 642.470703,352.204865 642.372559,371.365448 
	C642.335144,378.678650 641.732178,379.303345 634.340271,379.310577 
	C629.673889,379.315155 625.007019,379.330231 620.341309,379.265442 
	C614.658997,379.186493 613.675659,378.231598 613.666870,372.494293 
	C613.621460,342.829895 613.618164,313.165375 613.603027,283.001465 
z"/>
<path fill="#000000" opacity="1.000000" stroke="none" 
	d="
M548.224609,262.871155 
	C570.264282,262.496155 586.377441,273.067017 593.598206,293.421478 
	C601.368896,315.325958 601.646912,337.260315 590.082764,358.108185 
	C580.689331,375.042664 565.753357,382.924561 546.475586,381.172089 
	C529.139648,379.596161 517.265808,369.801056 510.664185,353.951569 
	C501.579346,332.140289 501.691010,309.979645 511.207916,288.490692 
	C518.031677,273.082947 530.602661,264.320587 548.224609,262.871155 
M537.341248,298.998016 
	C536.740112,304.437836 535.883118,309.864014 535.591370,315.320374 
	C534.995361,326.466034 535.462341,337.582764 538.934509,348.300659 
	C541.159607,355.169373 545.386719,358.574585 550.826721,358.686157 
	C557.144348,358.815704 561.511841,355.840027 564.057983,348.653625 
	C568.008423,337.503082 568.224915,325.855072 567.287476,314.228821 
	C566.678040,306.670044 566.653748,298.920105 562.851135,291.947083 
	C558.932922,284.762146 548.781372,283.146149 542.841919,288.775116 
	C540.086853,291.386169 538.646729,294.705872 537.341248,298.998016 
z"/>
<path fill="#000000" opacity="1.000000" stroke="none" 
	d="
M491.714569,286.270996 
	C479.221893,304.358978 466.926147,322.104248 454.710693,339.733643 
	C456.733124,342.390289 459.074005,341.555328 461.107056,341.621735 
	C471.070709,341.946930 480.495270,344.325867 489.473145,348.633759 
	C493.522339,350.576721 495.501465,353.604065 495.331787,358.152863 
	C495.189087,361.979248 495.386566,365.817352 495.288666,369.646576 
	C495.128662,375.903595 492.699097,377.478882 487.054230,374.874634 
	C468.187073,366.170563 448.863800,365.274384 429.152313,371.455139 
	C425.832947,372.495941 422.639404,373.988220 419.474518,375.458679 
	C415.726013,377.200287 413.200806,375.744354 413.009399,372.092407 
	C412.420044,360.848602 411.647766,349.905304 419.475555,339.767731 
	C431.468933,324.235474 442.167542,307.703247 453.396027,291.581757 
	C453.663269,291.198059 453.698517,290.652802 453.918488,289.932190 
	C452.317505,288.144836 450.119873,288.373718 448.033325,288.366394 
	C439.703491,288.337189 431.370178,288.201172 423.044861,288.393677 
	C418.192261,288.505829 416.459229,286.279755 416.667236,281.721344 
	C416.819000,278.396637 416.639435,275.058197 416.686523,271.727020 
	C416.763611,266.271332 417.990845,264.896301 423.468964,264.847137 
	C435.629791,264.737946 447.792145,264.796539 459.953857,264.789001 
	C468.783600,264.783508 477.613953,264.718323 486.442871,264.801392 
	C491.915863,264.852875 493.299805,266.164185 493.225128,271.669708 
	C493.160431,276.437378 494.283020,281.359680 491.714569,286.270996 
z"/>
<path fill="#000000" opacity="1.000000" stroke="none" 
	d="
M153.735077,403.210724 
	C166.090790,409.098297 178.584412,413.664001 190.878250,418.712280 
	C197.666611,421.499786 204.511627,424.757477 210.662857,429.076721 
	C216.562317,433.219116 222.893051,435.593384 230.354630,434.057159 
	C234.386032,433.227173 238.673828,434.330719 242.703156,432.859894 
	C243.108215,432.712067 243.819824,432.821991 244.136337,433.100067 
	C249.724396,438.009338 257.233063,435.734314 263.468567,438.284454 
	C265.753326,439.218811 268.291412,439.484741 270.368561,441.032349 
	C275.405579,444.785278 275.734528,446.443268 272.350189,451.801086 
	C268.243713,458.302155 262.358337,460.796234 254.571381,459.359741 
	C244.748123,457.547638 234.795349,455.904877 225.533554,452.219940 
	C210.216797,446.125824 194.038132,442.221252 179.526840,434.072296 
	C161.516251,423.958160 144.270935,412.754303 128.744431,399.048767 
	C128.120743,398.498230 127.524925,397.914032 126.940735,397.321259 
	C125.469452,395.828491 124.137054,394.106781 125.541710,392.053436 
	C127.055931,389.839966 129.423096,390.349060 131.405426,391.279968 
	C133.952606,392.476105 136.286987,394.116211 138.778442,395.442139 
	C143.627518,398.022705 148.522125,400.517670 153.735077,403.210724 
z"/>
</svg>